<svg xmlns="http://www.w3.org/2000/svg"><style>:root svg:not(:target){display:none}</style><svg viewBox="0 0 22 22" fill="none" id="instagram"><g clip-path="url(#instagram_0)"><path fill-rule="evenodd" clip-rule="evenodd" d="M6.843 0.977248C7.91825 0.927748 8.26108 0.916748 11.0001 0.916748C13.7391 0.916748 14.0819 0.928665 15.1562 0.977248C16.2306 1.02583 16.9639 1.19725 17.6056 1.44566C18.2775 1.69958 18.8871 2.0965 19.3912 2.60983C19.9046 3.11308 20.3006 3.72175 20.5536 4.39458C20.8029 5.03625 20.9734 5.76958 21.0229 6.84208C21.0724 7.91916 21.0834 8.262 21.0834 11.0001C21.0834 13.7391 21.0715 14.0819 21.0229 15.1572C20.9743 16.2297 20.8029 16.963 20.5536 17.6047C20.3006 18.2776 19.9039 18.8873 19.3912 19.3912C18.8871 19.9046 18.2775 20.3006 17.6056 20.5536C16.9639 20.8029 16.2306 20.9734 15.1581 21.0229C14.0819 21.0724 13.7391 21.0834 11.0001 21.0834C8.26108 21.0834 7.91825 21.0715 6.843 21.0229C5.7705 20.9743 5.03716 20.8029 4.3955 20.5536C3.72259 20.3005 3.11292 19.9039 2.60891 19.3912C2.09593 18.8877 1.69895 18.2783 1.44566 17.6056C1.19725 16.9639 1.02675 16.2306 0.977248 15.1581C0.927748 14.081 0.916748 13.7382 0.916748 11.0001C0.916748 8.26108 0.928665 7.91825 0.977248 6.84391C1.02583 5.76958 1.19725 5.03625 1.44566 4.39458C1.69933 3.72182 2.09661 3.11245 2.60983 2.60891C3.11312 2.09604 3.72218 1.69907 4.39458 1.44566C5.03625 1.19725 5.76958 1.02675 6.84208 0.977248H6.843ZM15.0747 2.79225C14.0113 2.74366 13.6923 2.73358 11.0001 2.73358C8.30783 2.73358 7.98883 2.74366 6.9255 2.79225C5.94191 2.83716 5.40841 3.00125 5.05275 3.13966C4.5825 3.323 4.24608 3.54025 3.89316 3.89316C3.55862 4.21863 3.30116 4.61484 3.13966 5.05275C3.00125 5.40841 2.83716 5.94191 2.79225 6.9255C2.74366 7.98883 2.73358 8.30783 2.73358 11.0001C2.73358 13.6923 2.74366 14.0113 2.79225 15.0747C2.83716 16.0582 3.00125 16.5917 3.13966 16.9474C3.301 17.3847 3.55858 17.7816 3.89316 18.107C4.21858 18.4416 4.6155 18.6992 5.05275 18.8605C5.40841 18.9989 5.94191 19.163 6.9255 19.2079C7.98883 19.2565 8.30691 19.2666 11.0001 19.2666C13.6932 19.2666 14.0113 19.2565 15.0747 19.2079C16.0582 19.163 16.5917 18.9989 16.9474 18.8605C17.4177 18.6772 17.7541 18.4599 18.107 18.107C18.4416 17.7816 18.6992 17.3847 18.8605 16.9474C18.9989 16.5917 19.163 16.0582 19.2079 15.0747C19.2565 14.0113 19.2666 13.6923 19.2666 11.0001C19.2666 8.30783 19.2565 7.98883 19.2079 6.9255C19.163 5.94191 18.9989 5.40841 18.8605 5.05275C18.6772 4.5825 18.4599 4.24608 18.107 3.89316C17.7815 3.55865 17.3853 3.30119 16.9474 3.13966C16.5917 3.00125 16.0582 2.83716 15.0747 2.79225V2.79225ZM9.71216 14.1085C10.4314 14.4079 11.2323 14.4483 11.9781 14.2228C12.7239 13.9973 13.3682 13.5199 13.8011 12.8721C14.2339 12.2244 14.4285 11.4464 14.3515 10.6711C14.2744 9.89581 13.9307 9.17131 13.3788 8.62133C13.027 8.26977 12.6017 8.00058 12.1334 7.83313C11.6651 7.66569 11.1655 7.60416 10.6705 7.65298C10.1756 7.7018 9.69764 7.85974 9.27107 8.11545C8.8445 8.37116 8.47993 8.71826 8.20361 9.13178C7.92729 9.54529 7.74609 10.0149 7.67305 10.5069C7.60002 10.9988 7.63697 11.5008 7.78124 11.9768C7.92552 12.4528 8.17352 12.8908 8.50741 13.2594C8.84129 13.628 9.25275 13.918 9.71216 14.1085ZM7.33525 7.33525C7.81652 6.85397 8.38787 6.47221 9.01669 6.21175C9.6455 5.95128 10.3195 5.81722 11.0001 5.81722C11.6807 5.81722 12.3547 5.95128 12.9835 6.21175C13.6123 6.47221 14.1836 6.85397 14.6649 7.33525C15.1462 7.81652 15.528 8.38787 15.7884 9.01669C16.0489 9.6455 16.1829 10.3195 16.1829 11.0001C16.1829 11.6807 16.0489 12.3547 15.7884 12.9835C15.528 13.6123 15.1462 14.1836 14.6649 14.6649C13.6929 15.6369 12.3747 16.1829 11.0001 16.1829C9.6255 16.1829 8.30722 15.6369 7.33525 14.6649C6.36327 13.6929 5.81722 12.3747 5.81722 11.0001C5.81722 9.6255 6.36327 8.30722 7.33525 7.33525V7.33525ZM17.3324 6.58908C17.4517 6.47658 17.5472 6.34129 17.6132 6.19122C17.6792 6.04116 17.7145 5.87937 17.7169 5.71543C17.7193 5.5515 17.6887 5.38875 17.6271 5.23682C17.5655 5.0849 17.474 4.94688 17.358 4.83095C17.2421 4.71502 17.1041 4.62353 16.9522 4.56189C16.8002 4.50025 16.6375 4.46973 16.4736 4.47212C16.3096 4.47451 16.1478 4.50976 15.9978 4.5758C15.8477 4.64184 15.7124 4.73732 15.5999 4.85658C15.3811 5.08852 15.2613 5.39661 15.266 5.71543C15.2706 6.03426 15.3993 6.33872 15.6248 6.56419C15.8503 6.78965 16.1547 6.91837 16.4736 6.92302C16.7924 6.92767 17.1005 6.80788 17.3324 6.58908V6.58908Z" fill="#9D5F5F"></path></g><defs><clipPath id="instagram_0"><rect width="22" height="22" fill="white"></rect></clipPath></defs></svg><svg viewBox="0 0 25 25" fill="none" id="location"><path fill-rule="evenodd" clip-rule="evenodd" d="M12.5 22.0714L13.2512 21.225C14.1036 20.2488 14.8703 19.3226 15.5524 18.4417L16.1155 17.6988C18.4667 14.531 19.6429 12.0167 19.6429 10.1583C19.6429 6.19167 16.4453 2.9762 12.5 2.9762C8.5548 2.9762 5.35718 6.19167 5.35718 10.1583C5.35718 12.0167 6.53337 14.531 8.88456 17.6988L9.44765 18.4417C10.4208 19.6886 11.4389 20.8985 12.5 22.0714Z" stroke="#B17F7F" stroke-linecap="round" stroke-linejoin="round"></path><path d="M12.5 13.0953C14.1437 13.0953 15.4762 11.7628 15.4762 10.1191C15.4762 8.47537 14.1437 7.14288 12.5 7.14288C10.8563 7.14288 9.5238 8.47537 9.5238 10.1191C9.5238 11.7628 10.8563 13.0953 12.5 13.0953Z" stroke="#B17F7F" stroke-linecap="round" stroke-linejoin="round"></path></svg><svg viewBox="0 0 42 62" fill="none" id="tick"><path d="M29.6288 0.0549205C36.6633 0.85856 46.8373 26.6904 39.399 41.4095C32.2997 55.458 13.0317 69.6182 3.44472 57.2734C-4.17581 47.4607 2.22872 43.1706 9.30683 25.5456C17.9673 7.24431 22.5943 -0.748719 29.6288 0.0549205Z" fill="#9D5F5F"></path><path fill-rule="evenodd" clip-rule="evenodd" d="M33.6289 27L21.9667 39.276L15.3712 32.3334L16.2667 31.3907L21.9667 37.3907L32.7334 26.0574L33.6289 27Z" fill="white"></path></svg><svg viewBox="0 0 42 62" fill="none" id="vector_outline"><path d="M29.6288 0.0549205C36.6633 0.85856 46.8373 26.6904 39.399 41.4095C32.2997 55.458 13.0317 69.6182 3.44472 57.2734C-4.17581 47.4607 2.22872 43.1706 9.30683 25.5456C17.9673 7.24431 22.5943 -0.748719 29.6288 0.0549205Z" fill="#9D5F5F"></path></svg><svg viewBox="0 0 1164 77" fill="none" id="wave"><path d="M1 39.8974C143.349 -11.2259 226.253 0.19986 375.612 39.8974C558.064 85.0861 652.021 90.8948 793.41 39.8974C945.325 -16.8033 1024.92 -6.89214 1163 39.8974" stroke="#A37575"></path></svg><svg viewBox="0 0 24 18" fill="none" id="youtube"><path d="M23.375 8.92881C23.375 8.87295 23.375 8.80947 23.3725 8.73584C23.3699 8.53018 23.3648 8.29912 23.3598 8.05283C23.3395 7.34443 23.3039 6.63857 23.248 5.97334C23.1719 5.05674 23.0602 4.29248 22.9078 3.71865C22.747 3.11981 22.4319 2.57366 21.9939 2.13478C21.5559 1.69589 21.0104 1.37966 20.4119 1.21768C19.6934 1.02471 18.2867 0.905371 16.3062 0.831738C15.3643 0.796191 14.3562 0.77334 13.3482 0.760644C12.9953 0.755566 12.6678 0.753027 12.3732 0.750488H11.6268C11.3322 0.753027 11.0047 0.755566 10.6518 0.760644C9.64375 0.77334 8.63574 0.796191 7.69375 0.831738C5.71328 0.90791 4.3041 1.02725 3.58809 1.21768C2.98938 1.37926 2.44365 1.69536 2.0056 2.13431C1.56755 2.57325 1.25255 3.11962 1.09219 3.71865C0.937305 4.29248 0.828125 5.05674 0.751953 5.97334C0.696094 6.63857 0.660547 7.34443 0.640234 8.05283C0.632617 8.29912 0.630078 8.53018 0.627539 8.73584C0.627539 8.80947 0.625 8.87295 0.625 8.92881V9.071C0.625 9.12686 0.625 9.19033 0.627539 9.26397C0.630078 9.46963 0.635156 9.70068 0.640234 9.94697C0.660547 10.6554 0.696094 11.3612 0.751953 12.0265C0.828125 12.9431 0.939844 13.7073 1.09219 14.2812C1.41719 15.4974 2.37187 16.4571 3.58809 16.7821C4.3041 16.9751 5.71328 17.0944 7.69375 17.1681C8.63574 17.2036 9.64375 17.2265 10.6518 17.2392C11.0047 17.2442 11.3322 17.2468 11.6268 17.2493H12.3732C12.6678 17.2468 12.9953 17.2442 13.3482 17.2392C14.3562 17.2265 15.3643 17.2036 16.3062 17.1681C18.2867 17.0919 19.6959 16.9726 20.4119 16.7821C21.6281 16.4571 22.5828 15.4999 22.9078 14.2812C23.0627 13.7073 23.1719 12.9431 23.248 12.0265C23.3039 11.3612 23.3395 10.6554 23.3598 9.94697C23.3674 9.70068 23.3699 9.46963 23.3725 9.26397C23.3725 9.19033 23.375 9.12686 23.375 9.071V8.92881V8.92881ZM21.5469 9.06084C21.5469 9.11416 21.5469 9.17256 21.5443 9.24111C21.5418 9.43916 21.5367 9.65752 21.5316 9.89365C21.5139 10.569 21.4783 11.2444 21.425 11.8716C21.3564 12.6892 21.26 13.3595 21.1406 13.8089C20.9832 14.3954 20.5211 14.8601 19.9371 15.0149C19.4039 15.1571 18.0607 15.2714 16.2352 15.3399C15.3109 15.3755 14.3156 15.3983 13.3229 15.411C12.975 15.4161 12.6525 15.4187 12.3631 15.4187H11.6369L10.6771 15.411C9.68437 15.3983 8.6916 15.3755 7.76484 15.3399C5.93926 15.2688 4.59355 15.1571 4.06289 15.0149C3.47891 14.8575 3.0168 14.3954 2.85938 13.8089C2.74004 13.3595 2.64355 12.6892 2.575 11.8716C2.52168 11.2444 2.48867 10.569 2.46836 9.89365C2.46074 9.65752 2.4582 9.43662 2.45566 9.24111C2.45566 9.17256 2.45312 9.11162 2.45312 9.06084V8.93897C2.45312 8.88565 2.45313 8.82725 2.45566 8.75869C2.4582 8.56064 2.46328 8.34229 2.46836 8.10615C2.48613 7.43076 2.52168 6.75537 2.575 6.12822C2.64355 5.31064 2.74004 4.64033 2.85938 4.19092C3.0168 3.60439 3.47891 3.13975 4.06289 2.98486C4.59609 2.84268 5.93926 2.72842 7.76484 2.65986C8.68906 2.62432 9.68437 2.60146 10.6771 2.58877C11.025 2.58369 11.3475 2.58115 11.6369 2.58115H12.3631L13.3229 2.58877C14.3156 2.60146 15.3084 2.62432 16.2352 2.65986C18.0607 2.73096 19.4064 2.84268 19.9371 2.98486C20.5211 3.14229 20.9832 3.60439 21.1406 4.19092C21.26 4.64033 21.3564 5.31064 21.425 6.12822C21.4783 6.75537 21.5113 7.43076 21.5316 8.10615C21.5393 8.34229 21.5418 8.56318 21.5443 8.75869C21.5443 8.82725 21.5469 8.88818 21.5469 8.93897V9.06084ZM9.74023 12.4022L15.6309 8.97451L9.74023 5.59756V12.4022Z" fill="#9D5F5F"></path></svg></svg>