<svg viewBox="0 0 218 84" fill="none" xmlns="http://www.w3.org/2000/svg"><path fill="#171616" d="M0 0h218v84h-218z"/><path d="M18.14 41.63h5.76v1.36h-5.76v-1.36Zm.14 4.98h6.53v1.39h-8.13v-11.2h7.9v1.4h-6.3v8.4Zm9.44 1.39v-11.2h1.6v9.8h6.06v1.4h-7.66Zm9.82 0v-11.2h1.6v9.8h6.06v1.4h-7.66Zm11.27-6.37h5.76v1.36h-5.76v-1.36Zm.15 4.98h6.53v1.39h-8.13v-11.2h7.9v1.4h-6.3v8.4Zm9.44 1.39v-11.2h1.3l7.42 9.2h-.7v-9.2h1.6v11.2h-1.3l-7.41-9.2h.69v9.2h-1.6Zm17.92 0v-11.2h1.31l5.02 8.46h-.7l4.96-8.46h1.31l.02 11.2h-1.54l-.01-8.78h.36l-4.41 7.42h-.74l-4.45-7.42h.4v8.78h-1.53Zm20.66.13c-.86 0-1.65-.15-2.39-.43a5.67 5.67 0 0 1-3.58-5.3 5.68 5.68 0 0 1 1.7-4.08 5.64 5.64 0 0 1 1.88-1.22 6.4 6.4 0 0 1 2.39-.43 6.24 6.24 0 0 1 4.24 1.63 5.72 5.72 0 0 1 1.7 4.1 5.72 5.72 0 0 1-1.7 4.11 5.9 5.9 0 0 1-4.24 1.62Zm0-1.43a4.49 4.49 0 0 0 3.08-1.21 4.3 4.3 0 0 0 1.25-3.09 4.3 4.3 0 0 0-2.62-3.98 4.49 4.49 0 0 0-1.71-.32c-.63 0-1.21.1-1.75.32a4.16 4.16 0 0 0-2.62 3.98 4.3 4.3 0 0 0 1.25 3.09 4.26 4.26 0 0 0 3.12 1.21Zm13.7 1.43a5.82 5.82 0 0 1-4.24-1.62 5.81 5.81 0 0 1 .02-8.2 5.48 5.48 0 0 1 1.87-1.2 6.36 6.36 0 0 1 2.37-.44c.86 0 1.66.15 2.38.45.74.29 1.36.72 1.88 1.3l-1.04 1a4.37 4.37 0 0 0-3.15-1.33c-.63 0-1.22.11-1.77.33a4.23 4.23 0 0 0-2.31 2.27 4.62 4.62 0 0 0 0 3.44 4.17 4.17 0 0 0 2.31 2.25 4.78 4.78 0 0 0 3.48 0 4.15 4.15 0 0 0 1.44-1.02l1.04 1a4.96 4.96 0 0 1-1.88 1.32c-.72.3-1.52.45-2.4.45Zm8.29-2.83-.08-1.96 6.35-6.54h1.82l-4.9 5.18-.9 1-2.3 2.32Zm-1.41 2.7v-11.2h1.6v11.2h-1.6Zm7.94 0-4.6-5.34 1.08-1.19 5.39 6.53h-1.87Zm3.88 0v-11.2h1.6v11.2h-1.6Zm5.27 0v-11.2h1.31l7.41 9.2h-.69v-9.2h1.6v11.2h-1.3l-7.41-9.2h.68v9.2h-1.6Zm18.36.13c-.86 0-1.66-.14-2.38-.42a5.68 5.68 0 0 1-3.58-5.31 5.5 5.5 0 0 1 3.6-5.3 6.45 6.45 0 0 1 2.4-.43c.88 0 1.7.15 2.43.43.73.3 1.36.72 1.87 1.3l-1 1a4.65 4.65 0 0 0-3.25-1.3c-.63 0-1.23.1-1.78.32a4.13 4.13 0 0 0-2.67 3.98c0 .6.1 1.18.32 1.71.22.52.53.98.92 1.38.4.38.88.68 1.43.9a5.38 5.38 0 0 0 3.49.05c.55-.2 1.06-.51 1.53-.95l.91 1.21c-.55.47-1.2.83-1.95 1.08-.74.23-1.5.35-2.29.35Zm2.7-1.63v-4.16h1.54v4.36l-1.53-.2Zm4.93 1.5v-11.2h5.02c1.3 0 2.28.26 2.98.78a2.5 2.5 0 0 1 1.04 2.12 2.64 2.64 0 0 1-1.5 2.5c-.47.22-.96.33-1.5.33l.3-.48c.63 0 1.2.11 1.69.33.49.23.88.56 1.17 1 .28.42.43.96.43 1.6 0 .96-.36 1.7-1.09 2.24-.71.52-1.78.78-3.2.78h-5.34Zm1.6-1.3h3.68a3.8 3.8 0 0 0 2.03-.44c.47-.3.7-.77.7-1.41 0-.65-.23-1.13-.7-1.43a3.8 3.8 0 0 0-2.03-.44h-3.83v-1.3h3.43c.8 0 1.44-.15 1.88-.45.45-.3.68-.74.68-1.34 0-.6-.23-1.05-.68-1.35a3.38 3.38 0 0 0-1.88-.44h-3.28v8.6Zm10.83 1.3v-11.2h1.6v11.2h-1.6Zm5.27 0v-11.2h4.37c.98 0 1.82.15 2.5.46.7.31 1.24.76 1.6 1.35.38.58.57 1.28.57 2.1 0 .8-.19 1.5-.56 2.09-.37.58-.9 1.02-1.6 1.33-.7.3-1.53.46-2.51.46h-3.5l.73-.73v4.14h-1.6Zm7.49 0-2.85-4.06h1.71l2.88 4.06h-1.74Zm-5.9-3.98-.71-.79h3.44c1.02 0 1.8-.22 2.32-.65.53-.45.8-1.08.8-1.88 0-.8-.27-1.41-.8-1.85-.52-.44-1.3-.66-2.32-.66h-3.44l.72-.8v6.63Zm10.35 3.98v-11.2h4.72c1.2 0 2.25.23 3.16.7a5.13 5.13 0 0 1 2.12 1.97c.52.84.77 1.82.77 2.93 0 1.1-.25 2.09-.77 2.93-.5.84-1.2 1.5-2.12 1.97-.91.47-1.96.7-3.16.7h-4.72Zm1.6-1.4h3.03a5.1 5.1 0 0 0 2.4-.52 3.84 3.84 0 0 0 1.58-1.47 4.3 4.3 0 0 0 .56-2.21c0-.84-.18-1.58-.56-2.2a3.84 3.84 0 0 0-1.58-1.48 5.1 5.1 0 0 0-2.4-.53h-3.03v8.42Z" fill="#fff"/></svg>